# xmcd
#
# Track frame offsets: 
#        150
#        12638
#        24150
#        34467
#        47482
#        59805
#        69375
#        80202
#        89059
#        101866
#        113629
#        123278
#        133928
#        148268
#
# Disc length: 2130 seconds
#
# Revision: 1
# Processed by: cddbd v1.5.2PL0 Copyright (c) Steve Scherf et al.
# Submitted via: ExactAudioCopy v1.0b1
#
DISCID=d508500e
DTITLE=Ralph Stanley - Poor Rambler [CD2]
DYEAR=2002
DGENRE=Bluegrass
TTITLE0=Over The Sunset Hill
TTITLE1=Going Up Home To Live In Green Pastures
TTITLE2=What Kind Of Man
TTITLE3=I Want A Clear Record
TTITLE4=Prepare Me O Lord
TTITLE5=I Wanna Go Home
TTITLE6=A Little Soldier For Jesus
TTITLE7=Jesse James Prayed
TTITLE8=Snow Covered Mound
TTITLE9=I'll Be With Dad And Mother
TTITLE10=Thou Long Expected Jesus
TTITLE11=Be Ready To Go
TTITLE12=Let Me Walk Lord By Your Side
TTITLE13=The Old Crossroad
EXTD=william hale
EXTT0=
EXTT1=
EXTT2=
EXTT3=
EXTT4=
EXTT5=
EXTT6=
EXTT7=
EXTT8=
EXTT9=
EXTT10=
EXTT11=
EXTT12=
EXTT13=
PLAYORDER=
